<mxfile host="app.diagrams.net" modified="2024-04-16T05:10:26.958Z" agent="Mozilla/5.0 (Windows NT 10.0; Win64; x64) AppleWebKit/537.36 (KHTML, like Gecko) Chrome/123.0.0.0 Safari/537.36" version="23.1.5" etag="lBeDLI2RbZtbIdWhDO08" type="github">
  <diagram name="第 1 页" id="qg67FRgGVWYrkfZwK9q9">
    <mxGraphModel>
      <root>
        <mxCell id="0" />
        <mxCell id="1" parent="0" />
      </root>
    </mxGraphModel>
  </diagram>
</mxfile>
